# xmcd
#
# Track frame offsets:
#	151
#	19564
#	37435
#	55482
#	73395
#	91350
#	107285
#	133906
#	147229
#	165566
#	182269
#	196964
#	213471
#	227964
#
# Disc length: 3272 seconds
#
# Revision: 1
# Processed by: cddbd v1.4PL0 Copyright (c) Steve Scherf et al.
# Submitted via: EasyCDDAExtractor 5.1.0
#
DISCID=ce0cc60e
DTITLE=Despilly Williams - Zimbou
DYEAR=1900
DGENRE=Country
TTITLE0=Zim boum boum
TTITLE1=Soley kouse
TTITLE2=Fer ou rezon
TTITLE3=Sakouy sa
TTITLE4=Ma perinel
TTITLE5=Ale ou mon nwarn
TTITLE6=Alo mon zanmi
TTITLE7=Mon remersi bon dye
TTITLE8=Zalouzi
TTITLE9=Ki pe pase laba
TTITLE10=Bouz san ou leren
TTITLE11=Obor lanmer
TTITLE12=Mon bezwen ale
TTITLE13=Catherine
EXTD=
EXTT0=
EXTT1=
EXTT2=
EXTT3=
EXTT4=
EXTT5=
EXTT6=
EXTT7=
EXTT8=
EXTT9=
EXTT10=
EXTT11=
EXTT12=
EXTT13=
PLAYORDER=
